<?xml version="1.0" standalone="no"?>
<!DOCTYPE svg PUBLIC "-//W3C//DTD SVG 20010904//EN"
 "http://www.w3.org/TR/2001/REC-SVG-20010904/DTD/svg10.dtd">
<svg version="1.0" xmlns="http://www.w3.org/2000/svg"
 width="1155.000000pt" height="410.000000pt" viewBox="0 0 1155.000000 410.000000"
 preserveAspectRatio="xMidYMid meet">

<g transform="translate(0.000000,410.000000) scale(0.100000,-0.100000)"
fill="#000000" stroke="none">
<path d="M5823 3818 c-47 -46 -144 -151 -214 -234 -151 -179 -242 -265 -358
-341 -47 -31 -111 -83 -141 -116 -30 -33 -92 -98 -136 -146 -93 -98 -139 -160
-320 -426 -114 -168 -145 -206 -274 -334 -165 -163 -276 -255 -362 -301 -79
-42 -112 -36 -204 35 -38 29 -108 81 -157 115 -82 57 -226 182 -377 325 -104
99 -146 112 -232 71 -27 -13 -43 -34 -77 -103 -34 -68 -57 -100 -109 -148 -36
-33 -147 -138 -246 -234 -168 -161 -197 -184 -396 -316 -148 -98 -232 -147
-270 -158 -31 -9 -84 -34 -118 -57 -54 -34 -73 -56 -136 -152 -40 -62 -89
-127 -107 -145 -77 -72 -307 -234 -451 -317 -245 -142 -309 -200 -441 -396
-43 -63 -129 -188 -192 -278 l-114 -162 258 0 258 0 114 81 c131 93 222 148
312 188 71 32 160 120 233 232 53 82 56 84 137 109 77 24 117 59 164 142 17
30 51 74 75 99 74 76 196 168 231 173 17 3 73 10 122 16 153 18 280 93 431
253 92 97 152 177 196 259 23 44 54 78 117 132 47 40 99 91 115 114 27 38 30
52 37 153 7 110 8 113 38 136 17 14 31 31 31 38 0 21 17 27 42 14 13 -6 94
-68 180 -136 205 -161 287 -217 438 -297 68 -36 137 -79 153 -94 43 -41 74
-99 93 -177 9 -38 34 -106 55 -150 21 -44 45 -97 53 -118 11 -26 25 -41 45
-48 23 -8 36 -24 54 -63 16 -35 41 -66 78 -96 30 -24 140 -128 244 -230 176
-173 199 -191 304 -251 84 -47 164 -106 303 -222 104 -87 221 -180 260 -207
l71 -50 91 0 91 0 -85 84 c-133 132 -148 189 -79 297 23 34 55 99 72 144 36
96 71 132 151 159 70 24 126 81 166 170 36 79 47 143 64 383 8 105 19 200 25
211 5 10 37 29 69 41 33 12 65 27 71 35 7 8 14 37 18 65 4 39 10 51 23 51 9 0
41 18 71 40 94 71 107 68 205 -51 36 -44 106 -113 155 -155 145 -123 184 -179
265 -386 81 -208 213 -474 264 -530 80 -91 109 -47 40 61 -25 39 -57 113 -84
194 -24 73 -69 191 -101 262 -31 72 -68 158 -81 193 -38 100 -46 111 -174 248
-149 159 -193 235 -198 351 -3 40 -1 73 4 73 4 0 62 -36 128 -79 67 -43 182
-108 256 -144 105 -51 151 -79 205 -129 39 -34 109 -96 157 -136 48 -40 102
-90 120 -113 18 -22 74 -87 123 -143 73 -83 96 -117 119 -177 16 -41 46 -102
66 -137 21 -34 47 -99 59 -145 46 -177 74 -254 112 -313 22 -34 55 -99 74
-144 24 -59 50 -99 87 -139 29 -31 63 -70 75 -86 l22 -30 0 35 c1 57 -25 143
-83 268 -69 152 -81 188 -111 362 -14 79 -25 146 -25 147 0 14 44 -5 97 -43
132 -95 216 -169 275 -245 49 -64 72 -84 128 -113 72 -38 103 -64 160 -134 28
-35 56 -52 148 -93 126 -56 187 -67 247 -47 79 26 47 59 -130 128 -49 19 -79
42 -160 123 -54 55 -141 131 -191 168 -115 86 -176 152 -237 257 -57 99 -93
127 -219 173 -112 41 -129 57 -381 331 -287 313 -442 438 -704 568 -160 79
-170 86 -272 185 -59 56 -126 112 -150 125 -93 47 -188 16 -258 -84 -79 -113
-203 -264 -240 -294 -21 -17 -86 -53 -144 -80 -57 -28 -116 -61 -130 -74 -67
-59 -224 -276 -270 -373 -54 -116 -87 -150 -209 -226 -47 -28 -106 -70 -131
-93 -56 -49 -241 -156 -270 -156 -27 0 -162 130 -184 177 -9 18 -17 45 -18 59
-2 23 5 28 75 50 85 27 115 48 98 69 -7 9 4 36 41 101 109 189 140 287 164
524 28 270 50 333 152 442 38 40 87 100 110 133 l40 60 5 120 c6 153 21 188
121 288 87 86 115 136 152 268 21 74 37 109 78 164 28 39 62 97 74 130 13 33
28 70 33 82 13 32 55 56 85 49 13 -3 66 -46 117 -94 152 -143 335 -282 511
-386 51 -30 111 -74 133 -98 62 -65 125 -149 121 -161 -2 -6 -35 -16 -74 -23
-107 -18 -313 -113 -313 -145 0 -6 45 -7 118 -3 100 6 128 4 192 -14 41 -11
123 -25 183 -32 140 -14 246 -42 321 -83 80 -44 154 -132 306 -362 194 -295
272 -406 284 -402 6 2 11 29 11 63 0 70 2 71 112 19 89 -41 148 -100 332 -330
251 -312 291 -371 338 -483 24 -58 60 -127 81 -155 20 -27 66 -98 102 -156 68
-110 100 -137 100 -83 0 16 -11 54 -25 84 -22 48 -75 257 -75 295 0 9 13 13
39 13 28 0 74 -17 163 -63 67 -34 153 -75 190 -90 41 -18 89 -49 129 -85 34
-31 99 -84 143 -117 71 -53 84 -67 104 -118 12 -31 34 -111 47 -177 22 -108
51 -190 73 -203 4 -3 0 47 -10 111 -17 115 -23 222 -13 222 3 0 42 -19 88 -41
55 -28 101 -61 140 -100 97 -98 384 -229 503 -229 27 0 27 0 8 21 -10 11 -59
44 -109 74 -206 121 -371 260 -566 475 -112 123 -190 202 -365 370 -49 47
-125 123 -169 170 -121 129 -409 364 -591 483 -89 58 -173 120 -187 139 -14
18 -37 68 -51 110 -30 90 -35 215 -11 313 8 33 18 99 21 148 9 108 19 120 71
81 69 -52 137 -129 224 -255 88 -126 129 -197 129 -222 0 -32 47 -69 161 -129
152 -80 176 -100 244 -204 88 -136 171 -210 316 -284 125 -64 193 -117 244
-190 l27 -39 -50 -83 c-44 -72 -48 -85 -36 -98 16 -16 11 -19 103 52 116 88
234 86 421 -7 119 -60 204 -130 366 -301 224 -237 242 -254 309 -299 53 -36
64 -50 105 -130 29 -57 52 -91 64 -93 33 -7 37 12 14 66 -12 28 -19 54 -15 58
3 4 50 -25 104 -63 108 -76 211 -138 219 -130 3 3 -1 20 -9 39 -18 42 -80 91
-277 220 -131 85 -155 106 -241 204 -52 60 -113 131 -134 158 -22 27 -85 85
-140 130 -55 44 -144 122 -197 172 -55 51 -126 106 -160 125 -59 31 -71 34
-183 39 -149 6 -164 14 -241 128 -63 92 -135 156 -274 242 -106 65 -154 111
-232 222 -66 95 -112 133 -228 185 -53 24 -80 46 -145 117 -44 48 -101 122
-126 164 -35 59 -67 95 -135 152 -48 41 -132 116 -185 167 -52 50 -108 95
-122 98 -50 13 -223 -107 -285 -197 -42 -60 -69 -83 -224 -187 -93 -63 -144
-92 -159 -89 -15 2 -42 30 -81 84 -142 201 -340 364 -441 364 -20 0 -46 9 -61
21 -36 28 -299 320 -347 385 -47 64 -81 90 -179 139 -253 126 -531 359 -654
547 -91 140 -111 142 -233 26z"/>
<path d="M3289 1302 c-26 -20 -83 -70 -128 -110 -112 -99 -236 -190 -296 -217
-40 -18 -76 -24 -179 -29 -149 -7 -129 3 -321 -149 -122 -96 -144 -109 -191
-117 -29 -5 -67 -16 -86 -26 -41 -21 -156 -118 -307 -259 -63 -59 -131 -118
-152 -131 -44 -27 -190 -162 -238 -219 l-34 -40 57 -3 c55 -3 58 -1 109 42 28
25 70 55 92 65 22 11 65 38 95 61 50 37 56 39 67 24 17 -23 7 -57 -39 -131
l-38 -63 34 0 c38 0 60 23 131 135 53 83 148 180 225 230 36 23 124 72 196
109 72 36 162 86 199 111 55 36 78 45 112 45 30 0 43 -4 43 -14 0 -32 -241
-316 -372 -436 -44 -41 -106 -99 -137 -128 l-56 -53 285 4 c208 3 299 9 337
19 70 20 269 154 335 227 62 67 108 139 133 205 25 68 77 122 150 155 33 15
68 39 76 52 9 13 26 61 37 107 29 114 100 212 155 212 11 0 54 -32 96 -72 58
-55 112 -93 219 -152 78 -44 157 -92 177 -108 40 -34 170 -223 239 -351 37
-68 60 -96 112 -138 36 -29 83 -77 106 -106 38 -50 43 -53 84 -53 43 0 44 1
38 28 -14 60 -64 150 -118 209 -50 54 -95 138 -81 151 9 9 115 -41 187 -88 71
-47 221 -170 284 -233 18 -18 47 -41 64 -51 l33 -19 -7 29 c-15 60 -58 138
-107 195 -56 65 -100 93 -388 249 -160 87 -184 104 -280 195 -64 61 -166 143
-256 204 -206 142 -272 196 -398 325 -131 134 -149 146 -207 146 -37 0 -53 -7
-91 -38z"/>
<path d="M3643 734 c-13 -35 15 -156 56 -237 22 -45 54 -118 71 -162 49 -123
138 -291 164 -309 13 -8 36 -18 50 -22 37 -9 34 18 -9 101 -20 37 -47 96 -60
132 -50 131 -188 434 -216 473 -31 43 -46 49 -56 24z"/>
</g>
</svg>
